<svg xmlns="http://www.w3.org/2000/svg" width="138" height="44"><path d="M8.832 43.858c-.35 0-.7 0-1.05-.011a15.403 15.403 0 01-2.182-.184 6.834 6.834 0 01-1.937-.63 6.31 6.31 0 01-1.633-1.17 6.214 6.214 0 01-1.19-1.607 6.429 6.429 0 01-.63-1.904 14.825 14.825 0 01-.198-2.157C0 35.954 0 35.15 0 35.15V8.66s.012-.791.012-1.02c.023-.723.081-1.435.198-2.146A6.452 6.452 0 01.852 3.59c.303-.597.7-1.136 1.19-1.606A6.25 6.25 0 013.663.815a6.736 6.736 0 011.925-.62A14.028 14.028 0 017.782.011L8.832 0H128.73l1.062.011c.723.012 1.446.07 2.17.184a6.91 6.91 0 011.948.631 6.48 6.48 0 012.823 2.776c.304.597.514 1.24.63 1.893.117.711.187 1.434.199 2.168v1.021c.011.436.011.838.011 1.25v24.012c0 .413 0 .826-.011 1.24v1.066a14.36 14.36 0 01-.199 2.123 6.61 6.61 0 01-.63 1.915 6.357 6.357 0 01-1.19 1.595 6.31 6.31 0 01-1.633 1.17 6.908 6.908 0 01-1.948.631 13.88 13.88 0 01-2.182.184c-.338.011-.7.011-1.05.011h-1.26z"/><path fill="#fff" d="M35.604 21.753a4.637 4.637 0 012.236-3.89 4.815 4.815 0 00-3.788-2.017c-1.598-.162-3.14.937-3.953.937-.83 0-2.081-.928-3.423-.9a5.04 5.04 0 00-4.245 2.557c-1.835 3.133-.466 7.744 1.296 10.274.877 1.243 1.908 2.63 3.25 2.575 1.315-.054 1.808-.828 3.396-.828 1.57 0 2.036.828 3.405.801 1.415-.027 2.3-1.242 3.15-2.503a10.166 10.166 0 001.442-2.9 4.43 4.43 0 01-2.766-4.106zM33.015 14.179a4.543 4.543 0 001.059-3.269 4.745 4.745 0 00-3.05 1.558 4.34 4.34 0 00-1.085 3.151 3.957 3.957 0 003.076-1.44z"/><g><path fill="#fff" d="M50.52 21.986h.047l1.718 5.033h-3.483zm3.256 9.576h1.89l-4.15-11.482h-1.927L45.44 31.562h1.852l1.056-3.106h4.381zM62.871 27.372c0 1.708-.88 2.817-2.213 2.817-1.315 0-2.205-1.136-2.205-2.817 0-1.672.89-2.808 2.205-2.808 1.333 0 2.213 1.117 2.213 2.808zm-1.769-4.27a2.974 2.974 0 00-2.667 1.479h-.028v-1.396H56.74v11.14h1.723v-4.142h.037a2.852 2.852 0 002.64 1.461c2.102 0 3.5-1.673 3.5-4.271s-1.407-4.271-3.538-4.271zM69.878 30.189c-1.313 0-2.202-1.136-2.202-2.817 0-1.672.889-2.808 2.202-2.808 1.333 0 2.212 1.117 2.212 2.808 0 1.708-.87 2.817-2.212 2.817zm.454-7.087a2.974 2.974 0 00-2.667 1.479h-.028v-1.396H65.97v11.14h1.713v-4.142h.037a2.852 2.852 0 002.64 1.461c2.103 0 3.501-1.673 3.501-4.271s-1.398-4.271-3.529-4.271zM79.97 28.368c.13 1.137 1.232 1.886 2.75 1.886 1.455 0 2.492-.75 2.492-1.775 0-.888-.63-1.424-2.121-1.794l-1.491-.36c-2.112-.509-3.094-1.498-3.094-3.098 0-1.978 1.732-3.337 4.187-3.337 2.426 0 4.094 1.359 4.15 3.337H85.1c-.102-1.146-1.056-1.84-2.436-1.84s-2.334.703-2.334 1.72c0 .814.602 1.285 2.084 1.655l1.269.314c2.362.555 3.343 1.507 3.343 3.18 0 2.145-1.713 3.495-4.436 3.495-2.547 0-4.27-1.313-4.381-3.393zM90.755 21.21v1.978h1.593v1.36h-1.593v4.613c0 .72.314 1.054 1.018 1.054.186 0 .38-.019.565-.037v1.35a5.589 5.589 0 01-.954.083c-1.695 0-2.361-.638-2.361-2.256v-4.798H87.8v-1.36h1.223V21.21zM99.465 27.38c0 1.812-.833 2.875-2.222 2.875-1.39 0-2.223-1.063-2.223-2.875 0-1.803.833-2.876 2.223-2.876 1.389 0 2.222 1.073 2.222 2.876zm-2.232 4.29c2.436 0 3.974-1.646 3.974-4.29 0-2.635-1.547-4.29-3.974-4.29-2.417 0-3.973 1.655-3.973 4.29 0 2.644 1.547 4.29 3.973 4.29zM102.64 23.193h1.64v1.424h.036a2.02 2.02 0 012.02-1.516c.194 0 .398.018.592.065v1.608a2.41 2.41 0 00-.768-.101 1.737 1.737 0 00-1.807 1.664c0 .092 0 .175.01.268v4.964h-1.723zM109.04 26.584a2.116 2.116 0 012.14-2.098h.157a1.997 1.997 0 011.9 2.107h-4.197zm4.178 2.534a1.902 1.902 0 01-1.936 1.174c-.083 0-.176 0-.269-.01a2.186 2.186 0 01-1.982-2.366v-.102h5.919v-.592c0-2.542-1.464-4.132-3.78-4.132-2.361 0-3.88 1.701-3.88 4.327 0 2.625 1.519 4.252 3.955 4.252 1.899 0 3.38-1.044 3.612-2.56z"/></g><g><path fill="#fff" d="M46.786 11.566h1.046c.113-.01.226-.01.339.01.97.14 1.649 1.09 1.517 2.12.018.13.028.26.018.39-.056 1.03-.894 1.82-1.865 1.76h-1.055zm-.876-.84v5.96h2.035c1.677 0 2.647-1.09 2.647-3 .019-.17.019-.35.01-.52-.095-1.45-1.291-2.54-2.657-2.44zM54.706 14.44c0 .98-.405 1.55-1.14 1.55-.735 0-1.14-.57-1.14-1.55 0-.98.415-1.55 1.14-1.55.725 0 1.14.57 1.14 1.55zm-3.137.41c.104 1.18 1.093 2.03 2.195 1.92 1.112-.11 1.912-1.16 1.809-2.33.01-.14.01-.27 0-.41-.113-1.17-1.093-2.03-2.195-1.92-1.103.12-1.913 1.16-1.81 2.33-.008.14-.008.28 0 .41zM60.89 16.7h-.866l-.877-3.32h-.065l-.877 3.32h-.857l-1.168-4.5h.848l.763 3.44h.066l.876-3.44h.8l.877 3.44h.066l.753-3.44h.839zM63.04 12.185h.81v.72h.066c.217-.53.725-.85 1.262-.8.764-.06 1.423.54 1.48 1.35.009.11 0 .22-.01.32v2.91h-.838v-2.69c0-.72-.292-1.08-.914-1.08-.537-.03-.99.41-1.018.98v2.79h-.838zM67.972 10.44h.838v6.26h-.838zM71.971 15.99c-.735 0-1.14-.57-1.14-1.55 0-.98.415-1.55 1.14-1.55.726 0 1.14.57 1.14 1.55 0 .98-.414 1.55-1.14 1.55zm-1.997-1.14c.104 1.18 1.083 2.03 2.195 1.92 1.112-.11 1.913-1.16 1.809-2.33.01-.14.01-.27 0-.41-.113-1.17-1.093-2.03-2.195-1.92-1.102.12-1.912 1.16-1.809 2.33-.019.14-.019.28 0 .41zM77.583 15.07c-.057.58-.547 1.01-1.093.95-.452 0-.782-.23-.782-.64 0-.4.264-.61.848-.65l1.036-.07v.38c-.01.01-.01.02-.01.03zm-2.714.5c.066.74.698 1.29 1.404 1.21.509.02.999-.25 1.272-.71h.066v.63h.81v-3.08c0-.95-.603-1.51-1.667-1.51-.961 0-1.65.5-1.734 1.27h.81c.095-.32.415-.5.886-.5.575 0 .867.26.867.74v.39l-1.15.07c-1.008.06-1.573.53-1.573 1.34 0 .05 0 .09.01.15zM80.387 14.44c0-.94.424-1.52 1.13-1.53.697 0 1.14.59 1.14 1.53 0 .95-.433 1.53-1.14 1.53-.706 0-1.13-.57-1.13-1.53zm.895 2.34c.546.02 1.055-.29 1.328-.79h.066v.71h.81v-6.26h-.838v2.47h-.066c-.255-.51-.763-.82-1.3-.79-1.074 0-1.762.9-1.762 2.32 0 1.43.678 2.33 1.762 2.34zM88.946 15.991c-.735 0-1.14-.57-1.14-1.55 0-.98.415-1.55 1.14-1.55.725 0 1.14.57 1.14 1.55 0 .98-.415 1.55-1.14 1.55zm-1.997-1.14c.104 1.18 1.093 2.03 2.195 1.92 1.112-.11 1.912-1.16 1.809-2.33.01-.14.01-.27 0-.41-.113-1.17-1.093-2.04-2.195-1.92-1.103.12-1.913 1.16-1.81 2.33-.008.14-.008.28 0 .41zM92.88 12.185v.72h.066c.217-.53.726-.85 1.262-.8.764-.06 1.423.54 1.48 1.35.009.11 0 .22-.01.32v2.91h-.838v-2.69c0-.72-.292-1.08-.914-1.08-.537-.03-.99.41-1.018.98v2.79h-.838v-4.5zM100.408 11.07v1.14h.923v.75h-.923v2.32c0 .47.179.68.603.68.103 0 .216-.01.32-.02v.74c-.15.03-.301.04-.452.05-.933 0-1.3-.35-1.3-1.22v-2.54h-.669v-.75h.669v-1.15zM102.46 10.44h.829v2.48h.066c.226-.53.744-.85 1.29-.81.773-.04 1.432.58 1.47 1.4.01.09 0 .19-.01.28v2.91h-.838v-2.69c0-.72-.31-1.08-.904-1.08-.546-.05-1.027.38-1.065.96v2.81h-.838zM108.056 14.03c0-.01 0-.02-.01-.02.01-.64.5-1.15 1.103-1.14h.104c.565.04.98.56.942 1.16zm2.13 1.45a.996.996 0 01-1.009.55h-.103c-.622-.06-1.084-.63-1.027-1.29v-.05h2.995v-.31c0-1.41-.716-2.27-1.893-2.27-.085 0-.18.01-.273.02-1.065.15-1.818 1.19-1.677 2.33-.019.11-.019.22-.019.33.028 1.13.914 2.02 1.978 1.99.83.1 1.602-.45 1.837-1.3z"/></g></svg>