<svg xmlns="http://www.w3.org/2000/svg" width="138" height="44"><defs><linearGradient id="a" x1="27.28" x2="27.28" y1="11.83" y2="32.29" gradientUnits="userSpaceOnUse"><stop offset="0" stop-color="#00a1ff"/><stop offset=".26" stop-color="#00beff"/><stop offset=".49" stop-color="#00d2ff"/><stop offset=".74" stop-color="#00dfff"/><stop offset="1" stop-color="#00e3ff"/></linearGradient><linearGradient id="b" x1="37.02" x2="37.02" y1="18.57" y2="25.56" gradientUnits="userSpaceOnUse"><stop offset="0" stop-color="#f5c343"/><stop offset="1" stop-color="#f9d748"/></linearGradient><linearGradient id="c" x1="29.25" x2="29.25" y1="22.06" y2="32.56" gradientUnits="userSpaceOnUse"><stop offset="0" stop-color="#d23e54"/><stop offset="1" stop-color="#e74a4d"/></linearGradient><linearGradient id="d" x1="29.25" x2="29.25" y1="11.56" y2="22.06" gradientUnits="userSpaceOnUse"><stop offset="0" stop-color="#6bdf7f"/><stop offset="1" stop-color="#71eb83"/></linearGradient></defs><path d="M8.772 43.878c-.35 0-.7 0-1.05-.011a15.403 15.403 0 01-2.182-.184 6.834 6.834 0 01-1.937-.63 6.31 6.31 0 01-1.633-1.17 6.214 6.214 0 01-1.19-1.607 6.429 6.429 0 01-.63-1.904 14.825 14.825 0 01-.198-2.157C-.06 35.974-.06 35.17-.06 35.17V8.68s.012-.791.012-1.02c.023-.723.081-1.435.198-2.146A6.452 6.452 0 01.792 3.61c.303-.597.7-1.136 1.19-1.606A6.25 6.25 0 013.603.835a6.736 6.736 0 011.925-.62A14.028 14.028 0 017.722.031L8.772.02H128.67l1.062.011c.723.012 1.446.07 2.17.184a6.91 6.91 0 011.948.631 6.48 6.48 0 012.823 2.776c.304.597.514 1.24.63 1.893.117.711.187 1.434.199 2.168v1.021c.011.436.011.838.011 1.25v24.012c0 .413 0 .826-.011 1.24v1.066a14.36 14.36 0 01-.199 2.123 6.61 6.61 0 01-.63 1.915 6.357 6.357 0 01-1.19 1.595 6.31 6.31 0 01-1.633 1.17 6.908 6.908 0 01-1.948.631 13.88 13.88 0 01-2.182.184c-.338.011-.7.011-1.05.011h-1.26z"/><path fill="#fff" d="M52.564 14.362c0 .686-.209 1.233-.625 1.634-.466.481-1.082.726-1.831.726a2.545 2.545 0 01-1.84-.735c-.508-.49-.758-1.102-.758-1.82 0-.728.25-1.332.758-1.822a2.545 2.545 0 011.84-.735c.358 0 .699.065 1.024.204.324.139.582.319.782.547l-.441.433c-.333-.384-.783-.58-1.365-.58-.525 0-.983.18-1.366.547-.383.36-.574.834-.574 1.413 0 .58.191 1.054.574 1.413.383.36.841.547 1.366.547.557 0 1.024-.18 1.398-.547.242-.237.383-.571.417-.996h-1.815v-.588h2.422c.017.122.034.245.034.36zM56.404 12.324H54.13v1.552h2.048v.588H54.13v1.552h2.273v.604H53.49v-4.9h2.914v.604zM59.11 16.62h-.641v-4.296H57.07v-.604h3.43v.604h-1.399v4.296zM62.996 16.62v-4.9h.64v4.9zM66.48 16.62h-.641v-4.296H64.44v-.604h3.43v.604h-1.399v4.296zM70.628 14.171c0-.573.192-1.04.558-1.408.367-.369.825-.549 1.358-.549.533 0 .992.18 1.358.549.375.368.558.835.558 1.408s-.191 1.04-.558 1.408c-.366.369-.825.549-1.358.549-.533 0-.991-.18-1.358-.549-.366-.368-.558-.835-.558-1.408zm4.489-.005c0-.71-.25-1.315-.741-1.813-.5-.498-1.107-.743-1.832-.743-.732 0-1.34.245-1.831.743-.492.49-.733 1.103-.733 1.813s.241 1.315.733 1.813c.49.498 1.099.743 1.831.743.733 0 1.34-.245 1.832-.743.491-.49.733-1.094.74-1.813zM76.01 16.62v-4.9h.783l2.43 3.814h.026l-.025-.948V11.72h.64v4.9H79.2l-2.54-3.994h-.025l.025.948v3.046z"/><g><path fill="#fff" d="M101.631 19.59h1.554v10.276h-1.554zm15.589 3.7l-4.236 9.692h-1.61l1.57-3.461-2.75-6.232h1.66l1.832 4.456h.05l1.767-4.456zm-8.62 3.79c-.405-.197-.727-.346-1.404-.346-.76 0-1.634.306-1.634 1.099 0 .62.701.876 1.205.876.892 0 1.717-.678 1.833-1.628zm1.478-1.172v3.932h-1.486v-.796h-.05c-.355.541-.933 1.001-1.965 1.001-1.354 0-2.56-.887-2.56-2.257 0-1.503 1.495-2.307 2.973-2.307.735 0 1.33.238 1.61.394v-.107c-.008-.845-.826-1.322-1.618-1.322-.57 0-1.115.19-1.404.756l-1.37-.567c.478-1.075 1.634-1.568 2.749-1.568 1.759 0 3.13 1.018 3.121 2.84zM99.237 22.77c0-.805-.652-1.759-1.808-1.759H95.24v3.527h2.188c1.156 0 1.808-.962 1.808-1.768zm1.552.009c0 1.956-1.676 3.19-3.385 3.19h-2.155v3.896h-1.544V19.59h3.69c1.702 0 3.394 1.233 3.394 3.19zM79.132 26.6c0-1.229-.826-2.135-1.874-2.135-1.065 0-1.957.898-1.957 2.134 0 1.22.892 2.11 1.957 2.11 1.057 0 1.882-.89 1.874-2.11zm-.107-2.735v-.567h1.461v6.28c0 2.582-1.527 3.642-3.336 3.642-1.7 0-2.724-1.134-3.112-2.063l1.345-.56c.24.568.826 1.242 1.767 1.242 1.156 0 1.875-.715 1.875-2.055v-.502h-.05c-.347.428-1.015.798-1.85.798-1.758 0-3.368-1.53-3.368-3.486 0-1.973 1.61-3.51 3.369-3.51.842 0 1.502.37 1.85.78zm2.534-4.275h1.544v10.276H81.56zm6.953 5.59c-.174-.436-.694-.74-1.305-.74-.784 0-1.874.69-1.833 2.039zm1.816.526l-4.698 1.932c.355.699.916 1.06 1.7 1.06.785 0 1.33-.386 1.727-.97l1.197.798a3.483 3.483 0 01-2.923 1.545c-1.998 0-3.484-1.537-3.484-3.493 0-2.08 1.502-3.494 3.31-3.494 1.825 0 2.717 1.447 3.006 2.228zM52.752 24.17h5.012c.058.263.082.584.082.929 0 1.11-.305 2.49-1.288 3.469-.957.995-2.18 1.52-3.806 1.52-3.005 0-5.532-2.44-5.532-5.433 0-3 2.527-5.434 5.532-5.434 1.668 0 2.849.65 3.74 1.496l-1.048 1.044a3.783 3.783 0 00-2.684-1.06c-2.196 0-3.913 1.759-3.913 3.946 0 2.186 1.717 3.946 3.913 3.946 1.42 0 2.23-.568 2.75-1.085.42-.42.702-1.036.809-1.867h-3.567zm11.13 2.409c0-1.258-.917-2.121-1.982-2.121s-1.981.863-1.981 2.12c0 1.25.916 2.122 1.981 2.122s1.982-.872 1.982-2.121zm1.554 0c0 2.014-1.588 3.493-3.53 3.493-1.944 0-3.531-1.48-3.531-3.493 0-2.023 1.587-3.494 3.53-3.494 1.943 0 3.531 1.471 3.531 3.494zm6.151 0c0-1.258-.919-2.121-1.986-2.121-1.068 0-1.987.863-1.987 2.12 0 1.25.919 2.122 1.987 2.122 1.06 0 1.986-.872 1.986-2.121zm1.534 0c0 2.014-1.585 3.493-3.525 3.493s-3.526-1.48-3.526-3.493c0-2.023 1.585-3.494 3.526-3.494 1.94 0 3.525 1.471 3.525 3.494z"/></g><g><path fill="url(#a)" d="M22.209 11.887c-.245.253-.389.645-.389 1.143v18.065c0 .507.144.899.389 1.144l.059.057 10.465-10.11v-.246L22.268 11.83z"/><path fill="url(#b)" d="M36.218 25.56l-3.488-3.372v-.245l3.489-3.373.076.04 4.13 2.271c1.183.645 1.183 1.707 0 2.36l-4.13 2.27z"/><path fill="url(#c)" d="M36.3 25.506l-3.565-3.446L22.21 32.236c.389.4 1.03.449 1.757.049l12.332-6.779"/><path fill="url(#d)" d="M36.298 18.615l-12.341-6.778c-.727-.4-1.368-.351-1.757.049L32.733 22.06z"/><path d="M36.223 25.43l-12.265 6.737c-.684.376-1.3.352-1.689.009l-.059.057.06.057c.396.343 1.004.367 1.688-.008L36.3 25.504z" opacity=".2"/><path d="M22.207 32.123c-.245-.253-.389-.645-.389-1.143v.122c0 .507.144.899.389 1.144l.06-.057z" opacity=".12"/><g opacity=".12"><path d="M40.425 23.122l-4.215 2.31.076.074 4.13-2.27c.592-.327.887-.751.887-1.176-.042.384-.338.768-.878 1.062z"/></g></g></svg>